# xmcd
#
# Track frame offsets:
#	150
#	12825
#	29531
#	44681
#	61803
#	78729
#	92403
#	107859
#	123159
#	139209
#	155212
#	171243
#	186749
#	201179
#	219127
#	239677
#	249010
#	263035
#
# Disc length: 3724 seconds
#
# Revision: 1
# Processed by: cddbd v1.5.2PL0 Copyright (c) Steve Scherf et al.
# Submitted via: audiograbber 1.83.01
#
DISCID=030e8a12
DTITLE=Verschiedene - Fußball Kracher - CD 1
DYEAR=2012
DGENRE=
TTITLE0=Tio Martino Gonzaléz - Ai Se Eu Te Pego
TTITLE1=Flamingos Ritmo - Forca
TTITLE2=The Swifters - You'll Never Walk Alone
TTITLE3=Sly And Roblevy - Three Lions (Football's Coming Home)
TTITLE4=The Victorians - Anthem
TTITLE5=Los Valores - We Are The Champions
TTITLE6=The Swifters - Love Generation
TTITLE7=Sly And Roblevy  - Waka Waka
TTITLE8=The Victorians - Go West
TTITLE9=The Man - Life Is Life 
TTITLE10=The Victorians - Go West
TTITLE11=Miami Combo - Rockin' All Over The World
TTITLE12=Andy Grey - Stand Up (For The Champions)
TTITLE13=Grupo Corazon - Carnaval de Paris
TTITLE14=Grupo Corazon - The Cup Of Life
TTITLE15=Flamingos Miami - We Will Rock You
TTITLE16=Andy Grey - Feel The Rush
TTITLE17=John Wendlow - Sweet Caroline
EXTD=
EXTT0=
EXTT1=
EXTT2=
EXTT3=
EXTT4=
EXTT5=
EXTT6=
EXTT7=
EXTT8=
EXTT9=
EXTT10=
EXTT11=
EXTT12=
EXTT13=
EXTT14=
EXTT15=
EXTT16=
EXTT17=
PLAYORDER=
